<?xml version="1.0" encoding="UTF-8"?>
<svg width="130px" height="142px" viewBox="0 0 130 142" version="1.1" xmlns="http://www.w3.org/2000/svg" xmlns:xlink="http://www.w3.org/1999/xlink">
    <g id="Page-1" stroke="none" stroke-width="1" fill="none" fill-rule="evenodd">
        <g id="Group" transform="translate(312.014388, 344.000000) scale(-1, -1) translate(-312.014388, -344.000000) translate(240.000000, 274.000000)">
            <path d="M72.0143885,69.4964029 C85.1079137,42.8831365 91.6546763,26.0688453 91.6546763,19.0535295 C91.6546763,8.53055572 82.8614199,0 72.0143885,0 C61.1673571,0 52.3741007,8.53055572 52.3741007,19.0535295 C52.3741007,26.0688453 58.9208633,42.8831365 72.0143885,69.4964029 Z" id="Oval-2"></path>
            <path d="M72.0143885,140 C85.1079137,113.386734 91.6546763,96.5724425 91.6546763,89.5571266 C91.6546763,79.0341528 82.8614199,70.5035971 72.0143885,70.5035971 C61.1673571,70.5035971 52.3741007,79.0341528 52.3741007,89.5571266 C52.3741007,96.5724425 58.9208633,113.386734 72.0143885,140 Z" id="Oval-2" transform="translate(72.014388, 105.251799) scale(1, -1) translate(-72.014388, -105.251799) "></path>
            <path d="M103.23741,86.618705 C116.330935,60.0054386 122.877698,43.1911475 122.877698,36.1758317 C122.877698,25.6528579 114.084441,17.1223022 103.23741,17.1223022 C92.3903787,17.1223022 83.5971223,25.6528579 83.5971223,36.1758317 C83.5971223,43.1911475 90.1438849,60.0054386 103.23741,86.618705 Z" id="Oval-2" fill="#FCE6C7" transform="translate(103.237410, 51.870504) rotate(60.000000) translate(-103.237410, -51.870504) "></path>
            <path d="M102.230216,121.870504 C115.323741,95.2572372 121.870504,78.4429461 121.870504,71.4276302 C121.870504,60.9046564 113.077247,52.3741007 102.230216,52.3741007 C91.3831844,52.3741007 82.5899281,60.9046564 82.5899281,71.4276302 C82.5899281,78.4429461 89.1366906,95.2572372 102.230216,121.870504 Z" id="Oval-2" transform="translate(102.230216, 87.122302) scale(1, -1) rotate(60.000000) translate(-102.230216, -87.122302) "></path>
            <path d="M40.7913669,86.618705 C53.8848921,60.0054386 60.4316547,43.1911475 60.4316547,36.1758317 C60.4316547,25.6528579 51.6383983,17.1223022 40.7913669,17.1223022 C29.9443355,17.1223022 21.1510791,25.6528579 21.1510791,36.1758317 C21.1510791,43.1911475 27.6978417,60.0054386 40.7913669,86.618705 Z" id="Oval-2" transform="translate(40.791367, 51.870504) scale(-1, 1) rotate(60.000000) translate(-40.791367, -51.870504) "></path>
            <path d="M40.7913669,121.870504 C53.8848921,95.2572372 60.4316547,78.4429461 60.4316547,71.4276302 C60.4316547,60.9046564 51.6383983,52.3741007 40.7913669,52.3741007 C29.9443355,52.3741007 21.1510791,60.9046564 21.1510791,71.4276302 C21.1510791,78.4429461 27.6978417,95.2572372 40.7913669,121.870504 Z" id="Oval-2" transform="translate(40.791367, 87.122302) scale(-1, -1) rotate(60.000000) translate(-40.791367, -87.122302) "></path>
        </g>
    </g>
</svg>